<?xml version="1.0" encoding="utf-8"?><!-- Uploaded to: SVG Repo, www.svgrepo.com, Generator: SVG Repo Mixer Tools -->
<svg width="800px" height="800px" viewBox="0 0 40 40" fill="none" xmlns="http://www.w3.org/2000/svg">
<rect width="40" height="40" rx="8" fill="#000000" fill-opacity="0.4"/>
<path d="M25.0535 9.26666H14.9343C14.6049 9.26662 14.2814 9.35371 13.9966 9.51911C13.7118 9.68451 13.4758 9.92231 13.3126 10.2084L8.2535 19.0751C8.09277 19.3568 8.00824 19.6756 8.00824 20C8.00824 20.3244 8.09277 20.6432 8.2535 20.9249L13.3126 29.7916C13.4758 30.0777 13.7118 30.3155 13.9966 30.4809C14.2814 30.6463 14.6049 30.7334 14.9343 30.7333H25.0535C25.3824 30.7333 25.7055 30.6464 25.9901 30.4813C26.2746 30.3163 26.5105 30.079 26.6738 29.7935L31.745 20.9268C31.9065 20.6446 31.9914 20.3251 31.9914 20C31.9914 19.6749 31.9065 19.3554 31.745 19.0732L26.6738 10.2065C26.5105 9.92107 26.2747 9.68381 25.9903 9.51877C25.7058 9.35373 25.3824 9.26676 25.0535 9.26666Z" fill="white"/>
<path d="M20 15.8C19.4484 15.8 18.9023 15.9086 18.3927 16.1197C17.8831 16.3308 17.4201 16.6401 17.0301 17.0302C16.6401 17.4202 16.3308 17.8832 16.1197 18.3927C15.9086 18.9023 15.8 19.4485 15.8 20C15.8 20.5516 15.9086 21.0977 16.1197 21.6073C16.3308 22.1168 16.6401 22.5798 17.0301 22.9698C17.4201 23.3599 17.8831 23.6692 18.3927 23.8803C18.9023 24.0914 19.4484 24.2 20 24.2C21.1139 24.2 22.1822 23.7575 22.9698 22.9698C23.7575 22.1822 24.2 21.1139 24.2 20C24.2 18.8861 23.7575 17.8178 22.9698 17.0302C22.1822 16.2425 21.1139 15.8 20 15.8V15.8ZM20 17.6667C20.3064 17.6667 20.6098 17.727 20.8929 17.8443C21.176 17.9615 21.4332 18.1334 21.6499 18.3501C21.8666 18.5668 22.0384 18.824 22.1557 19.1071C22.273 19.3902 22.3333 19.6936 22.3333 20C22.3333 20.3064 22.273 20.6098 22.1557 20.8929C22.0384 21.176 21.8666 21.4332 21.6499 21.6499C21.4332 21.8666 21.176 22.0385 20.8929 22.1557C20.6098 22.273 20.3064 22.3333 20 22.3333C19.3811 22.3333 18.7877 22.0875 18.3501 21.6499C17.9125 21.2123 17.6667 20.6188 17.6667 20C17.6667 19.3812 17.9125 18.7877 18.3501 18.3501C18.7877 17.9125 19.3811 17.6667 20 17.6667V17.6667Z" fill="#B5B5B5"/>
</svg>